HIERARCHY
ROOT joint_Root
{
	OFFSET 0.0 0.0 0.0
	CHANNELS 6 Xposition Yposition Zposition Zrotation Xrotation Yrotation 
	JOINT Hips
	{
		OFFSET 4.5925 91.4895 -427.239
		CHANNELS 6 Xposition Yposition Zposition Zrotation Xrotation Yrotation 
		JOINT Spine
		{
			OFFSET 15.7357 0.0 0.0
			CHANNELS 6 Xposition Yposition Zposition Zrotation Xrotation Yrotation 
			JOINT Chest
			{
				OFFSET 8.98455 -0.406207 0.0
				CHANNELS 6 Xposition Yposition Zposition Zrotation Xrotation Yrotation 
				JOINT Neck
				{
					OFFSET 16.3773 0.0 0.0
					CHANNELS 6 Xposition Yposition Zposition Zrotation Xrotation Yrotation 
					JOINT Head
					{
						OFFSET 6.45672 0.0 0.0
						CHANNELS 6 Xposition Yposition Zposition Zrotation Xrotation Yrotation 
						End Site
						{
							OFFSET 0.0 0.0 0.0
						}
					}
				}
				JOINT Shoulder_L
				{
					OFFSET 12.9942 -0.242716 4.98039
					CHANNELS 6 Xposition Yposition Zposition Zrotation Xrotation Yrotation 
					JOINT UpperArm_L
					{
						OFFSET 5.34809 0.0 0.0
						CHANNELS 6 Xposition Yposition Zposition Zrotation Xrotation Yrotation 
						JOINT LowerArm_L
						{
							OFFSET 24.3286 1.87007e-05 0.0
							CHANNELS 6 Xposition Yposition Zposition Zrotation Xrotation Yrotation 
							JOINT Hand_L
							{
								OFFSET 22.2916 0.0 0.0
								CHANNELS 6 Xposition Yposition Zposition Zrotation Xrotation Yrotation 
								End Site
								{
									OFFSET 0.0 0.0 0.0
								}
							}
						}
					}
				}
				JOINT Shoulder_R
				{
					OFFSET 12.9945 -0.242716 -4.98039
					CHANNELS 6 Xposition Yposition Zposition Zrotation Xrotation Yrotation 
					JOINT UpperArm_R
					{
						OFFSET -5.34813 0.0 0.0
						CHANNELS 6 Xposition Yposition Zposition Zrotation Xrotation Yrotation 
						JOINT LowerArm_R
						{
							OFFSET -24.3289 0.000322201 0.0
							CHANNELS 6 Xposition Yposition Zposition Zrotation Xrotation Yrotation 
							JOINT Hand_R
							{
								OFFSET -22.2915 -0.000108084 0.0
								CHANNELS 6 Xposition Yposition Zposition Zrotation Xrotation Yrotation 
								End Site
								{
									OFFSET 0.0 0.0 0.0
								}
							}
						}
					}
				}
			}
		}
		JOINT UpperLeg_L
		{
			OFFSET -2.19248 -6.46944 0.0
			CHANNELS 6 Xposition Yposition Zposition Zrotation Xrotation Yrotation 
			JOINT LowerLeg_L
			{
				OFFSET 39.0811 0.0 -1.23785e-05
				CHANNELS 6 Xposition Yposition Zposition Zrotation Xrotation Yrotation 
				JOINT Foot_L
				{
					OFFSET 40.9854 0.0 -1.26872e-05
					CHANNELS 6 Xposition Yposition Zposition Zrotation Xrotation Yrotation 
					JOINT Toes_L
					{
						OFFSET 11.7543 0.0 0.0
						CHANNELS 6 Xposition Yposition Zposition Zrotation Xrotation Yrotation 
						End Site
						{
							OFFSET 0.0 0.0 0.0
						}
					}
				}
			}
		}
		JOINT UpperLeg_R
		{
			OFFSET -2.19251 6.46944 0.0
			CHANNELS 6 Xposition Yposition Zposition Zrotation Xrotation Yrotation 
			JOINT LowerLeg_R
			{
				OFFSET -39.0811 -0.00228153 -0.0401928
				CHANNELS 6 Xposition Yposition Zposition Zrotation Xrotation Yrotation 
				JOINT Foot_R
				{
					OFFSET -40.9854 0.0 0.0
					CHANNELS 6 Xposition Yposition Zposition Zrotation Xrotation Yrotation 
					JOINT Toes_R
					{
						OFFSET -11.7543 0.0 0.0
						CHANNELS 6 Xposition Yposition Zposition Zrotation Xrotation Yrotation 
						End Site
						{
							OFFSET 0.0 0.0 0.0
						}
					}
				}
			}
		}
	}
}
MOTION
Frames:	9
Frame Time:	0.0333333
0.000000 0.000000 0.000000 0.000000 0.000000 -0.000000 -1.841510 92.411400 -1.044790 88.719200 -0.681928 4.831370 15.735700 0.000005 -0.000001 69.467000 87.678500 -69.171200 8.984550 -0.406207 -0.000000 -3.414270 -1.656570 0.542531 16.377300 -0.000001 -0.000001 10.954000 -2.794180 1.798890 6.456720 -0.000001 -0.000000 8.877300 -1.859910 0.836535 12.994200 -0.242716 4.980390 -81.691500 -15.090600 -60.710600 5.348090 -0.000007 -0.000001 -65.769000 -62.253400 -113.580000 24.328600 0.000019 0.000005 5.102950 6.236300 -39.422000 22.291600 -0.000001 0.000005 14.422800 5.397230 -2.847480 12.994500 -0.242716 -4.980390 96.177300 -13.685100 -65.416700 -5.348130 -0.000001 -0.000004 -54.923900 -64.895400 -103.683000 -24.328900 0.000322 -0.000009 -4.398750 -5.824280 -37.156400 -22.291500 -0.000108 -0.000004 18.461400 5.545980 -8.517840 -2.192480 -6.469440 -0.000000 -173.846000 -13.162000 -2.014620 39.081100 -0.000007 -0.000012 -0.085982 0.215493 21.752200 40.985400 -0.000006 -0.000013 -0.350407 9.796140 -64.651500 11.754300 -0.000000 0.000003 -0.000088 -0.000922 -16.613000 -2.192510 6.469440 -0.000001 176.808000 25.166600 -179.976000 -39.081100 -0.002282 -0.040193 -0.027219 0.082683 20.272300 -40.985400 0.000008 0.000006 5.450000 16.838500 -66.015200 -11.754300 -0.000006 -0.000006 -0.002586 -0.035829 -18.030100
0.000000 0.000000 0.000000 0.000000 0.000000 -0.000000 -1.818810 92.432200 -1.089500 88.688100 -0.804512 4.792170 15.735700 0.000005 -0.000001 69.880000 87.654800 -69.580900 8.984550 -0.406207 -0.000000 -3.358090 -1.641680 0.550167 16.377300 -0.000001 -0.000001 11.159200 -2.871610 1.833380 6.456720 -0.000001 -0.000000 8.966710 -1.932760 0.838801 12.994200 -0.242716 4.980390 -81.722000 -14.891800 -60.484400 5.348090 -0.000007 -0.000001 -65.250800 -62.584400 -113.265000 24.328600 0.000019 0.000005 5.067140 6.084970 -39.911700 22.291600 -0.000001 0.000005 14.367900 5.394520 -2.760120 12.994500 -0.242716 -4.980390 96.137700 -13.578800 -65.391400 -5.348130 -0.000001 -0.000004 -54.562200 -64.817800 -103.216000 -24.328900 0.000322 -0.000009 -4.462650 -5.792600 -37.707200 -22.291500 -0.000108 -0.000004 18.547900 5.541710 -8.321110 -2.192480 -6.469440 -0.000000 -173.858000 -13.186600 -2.024880 39.081100 -0.000007 -0.000012 -0.082975 0.208995 21.654000 40.985400 -0.000006 -0.000013 -0.358903 9.670210 -64.578500 11.754300 -0.000000 0.000003 -0.000091 -0.000947 -16.614000 -2.192510 6.469440 -0.000001 176.804000 25.315200 -179.961000 -39.081100 -0.002282 -0.040193 -0.029853 0.090675 20.095300 -40.985400 0.000008 0.000006 5.381850 17.146000 -65.874000 -11.754300 -0.000006 -0.000006 -0.002729 -0.037493 -18.097800
0.000000 0.000000 0.000000 0.000000 0.000000 -0.000000 -1.794340 92.455500 -1.131000 88.659000 -0.912210 4.701680 15.735700 0.000005 -0.000001 70.404200 87.634600 -70.100300 8.984550 -0.406207 -0.000000 -3.305580 -1.615170 0.561355 16.377300 -0.000001 -0.000001 11.231100 -2.827890 1.819210 6.456720 -0.000001 -0.000000 8.811960 -1.901890 0.843514 12.994200 -0.242716 4.980390 -81.807100 -14.588600 -60.247300 5.348090 -0.000007 -0.000001 -64.389000 -62.869700 -111.964000 24.328600 0.000019 0.000005 4.846760 5.538930 -41.299800 22.291600 -0.000001 0.000005 14.478900 5.394360 -2.755200 12.994500 -0.242716 -4.980390 95.999400 -13.288600 -65.429300 -5.348130 -0.000001 -0.000004 -52.762300 -64.857600 -100.933000 -24.328900 0.000322 -0.000009 -4.859660 -5.989150 -39.167300 -22.291500 -0.000108 -0.000004 18.694500 5.535230 -8.027850 -2.192480 -6.469440 -0.000000 -173.870000 -13.183200 -2.063380 39.081100 -0.000007 -0.000012 -0.084910 0.215321 21.521400 40.985400 -0.000006 -0.000013 -0.374336 9.578780 -64.496700 11.754300 -0.000000 0.000003 -0.000087 -0.000917 -16.612800 -2.192510 6.469440 -0.000001 176.868000 25.312900 179.999000 -39.081100 -0.002282 -0.040193 -0.030590 0.093725 19.890900 -40.985400 0.000008 0.000006 5.254340 17.264700 -65.697700 -11.754300 -0.000006 -0.000006 -0.002605 -0.036047 -18.039000
0.000000 0.000000 0.000000 0.000000 0.000000 -0.000000 -1.767630 92.474700 -1.167970 88.665500 -0.997938 4.655100 15.735700 0.000005 -0.000001 70.955700 87.593800 -70.663000 8.984550 -0.406207 -0.000000 -3.213530 -1.597570 0.540826 16.377300 -0.000001 -0.000001 11.091500 -2.751920 1.732030 6.456720 -0.000001 -0.000000 8.623930 -1.712150 0.893675 12.994200 -0.242716 4.980390 -82.049200 -14.064900 -60.113800 5.348090 -0.000007 -0.000001 -62.494500 -63.034200 -109.121000 24.328600 0.000019 0.000005 4.451960 4.671620 -43.712300 22.291600 -0.000001 0.000005 14.970800 5.392000 -2.679200 12.994500 -0.242716 -4.980390 95.815500 -12.904800 -65.484800 -5.348130 -0.000001 -0.000004 -49.760600 -64.583700 -96.692000 -24.328900 0.000322 -0.000009 -5.229150 -5.838010 -41.973400 -22.291500 -0.000108 -0.000004 18.994000 5.528250 -7.718710 -2.192480 -6.469440 -0.000000 -173.917000 -13.248400 -2.057580 39.081100 -0.000007 -0.000012 -0.082051 0.209400 21.397200 40.985400 -0.000006 -0.000013 -0.364088 9.530090 -64.423600 11.754300 -0.000000 0.000003 -0.000085 -0.000899 -16.612200 -2.192510 6.469440 -0.000001 176.858000 25.358900 179.976000 -39.081100 -0.002282 -0.040193 -0.031151 0.095938 19.764500 -40.985400 0.000008 0.000006 5.214010 17.418600 -65.591000 -11.754300 -0.000006 -0.000006 -0.002571 -0.035646 -18.022600
0.000000 0.000000 0.000000 0.000000 0.000000 -0.000000 -1.736160 92.493200 -1.200660 88.665800 -1.090710 4.622490 15.735700 0.000005 -0.000001 71.181300 87.534700 -70.891700 8.984550 -0.406207 -0.000000 -3.095420 -1.617230 0.535608 16.377300 -0.000001 -0.000001 10.838000 -2.674500 1.713210 6.456720 -0.000001 -0.000000 8.515790 -1.480220 0.775537 12.994200 -0.242716 4.980390 -82.449300 -13.197700 -59.861300 5.348090 -0.000007 -0.000001 -60.308200 -62.469200 -105.259000 24.328600 0.000019 0.000005 4.198620 3.840120 -47.628500 22.291600 -0.000001 0.000005 15.532900 5.386350 -2.499170 12.994500 -0.242716 -4.980390 95.562200 -12.494100 -65.765100 -5.348130 -0.000001 -0.000004 -45.742400 -63.800800 -90.337000 -24.328900 0.000322 -0.000009 -5.747040 -5.455680 -46.623600 -22.291500 -0.000108 -0.000004 19.517100 5.521750 -7.437200 -2.192480 -6.469440 -0.000000 -173.934000 -13.370700 -2.046030 39.081100 -0.000007 -0.000012 -0.082838 0.212678 21.280800 40.985400 -0.000006 -0.000013 -0.349334 9.550860 -64.345500 11.754300 -0.000000 0.000003 -0.000087 -0.000911 -16.612600 -2.192510 6.469440 -0.000001 176.858000 25.445300 179.962000 -39.081100 -0.002282 -0.040193 -0.028191 0.088194 19.662500 -40.985400 0.000008 0.000006 5.308200 17.570600 -65.543300 -11.754300 -0.000006 -0.000006 -0.002600 -0.035995 -18.036900
0.000000 0.000000 0.000000 0.000000 0.000000 -0.000000 -1.704930 92.492300 -1.228360 88.654200 -1.198420 4.587640 15.735700 0.000005 -0.000001 71.965000 87.498300 -71.678300 8.984550 -0.406207 -0.000000 -3.005020 -1.575330 0.532277 16.377300 -0.000001 -0.000001 10.512400 -2.578730 1.658230 6.456720 -0.000001 -0.000000 8.410180 -1.459690 0.885986 12.994200 -0.242716 4.980390 -82.952600 -12.271500 -59.816200 5.348090 -0.000007 -0.000001 -57.558900 -61.239000 -99.553900 24.328600 0.000019 0.000005 3.322970 2.455610 -53.593800 22.291600 -0.000001 0.000005 16.211000 5.386350 -2.499180 12.994500 -0.242716 -4.980390 95.104100 -11.670000 -66.175200 -5.348130 -0.000001 -0.000004 -40.942400 -62.239300 -82.727400 -24.328900 0.000322 -0.000009 -6.252100 -4.809760 -52.567300 -22.291500 -0.000108 -0.000004 19.903100 5.518560 -7.300720 -2.192480 -6.469440 -0.000000 -173.937000 -13.528300 -2.087800 39.081100 -0.000007 -0.000012 -0.081821 0.209719 21.313000 40.985400 -0.000006 -0.000013 -0.307860 9.620920 -64.365100 11.754300 -0.000000 0.000003 -0.000096 -0.000990 -16.615600 -2.192510 6.469440 -0.000001 176.821000 25.516600 179.924000 -39.081100 -0.002282 -0.040193 -0.033844 0.104240 19.623500 -40.985400 0.000008 0.000006 5.058700 17.793300 -65.417700 -11.754300 -0.000006 -0.000006 -0.002456 -0.034280 -17.967100
0.000000 0.000000 0.000000 0.000000 0.000000 -0.000000 -1.686300 92.484500 -1.247330 88.645200 -1.241970 4.613850 15.735700 0.000005 -0.000001 72.546500 87.435900 -72.240700 8.984550 -0.406207 -0.000000 -2.870220 -1.565850 0.572344 16.377300 -0.000001 -0.000001 10.065500 -2.410190 1.421800 6.456720 -0.000001 -0.000000 8.441130 -1.518340 1.035800 12.994200 -0.242716 4.980390 -83.673900 -11.167200 -60.212100 5.348090 -0.000007 -0.000001 -53.689100 -59.493500 -91.458000 24.328600 0.000019 0.000005 2.052460 1.117460 -61.476100 22.291600 -0.000001 0.000005 17.080000 5.385020 -2.455970 12.994500 -0.242716 -4.980390 94.464900 -10.370100 -66.549600 -5.348130 -0.000001 -0.000004 -36.912700 -59.510900 -75.472500 -24.328900 0.000322 -0.000009 -6.272420 -3.689380 -59.651000 -22.291500 -0.000108 -0.000004 20.198400 5.511460 -7.002800 -2.192480 -6.469440 -0.000000 -173.930000 -13.521600 -2.117350 39.081100 -0.000007 -0.000012 -0.084156 0.214806 21.394100 40.985400 -0.000006 -0.000013 -0.302167 9.585380 -64.389800 11.754300 -0.000000 0.000003 -0.000092 -0.000954 -16.614200 -2.192510 6.469440 -0.000001 176.758000 25.640300 179.933000 -39.081100 -0.002282 -0.040193 -0.040257 0.122089 19.643700 -40.985400 0.000008 0.000006 4.861150 18.008600 -65.341900 -11.754300 -0.000006 -0.000006 -0.002492 -0.034714 -17.984700
0.000000 0.000000 0.000000 0.000000 0.000000 -0.000000 -1.658220 92.466000 -1.260970 88.653900 -1.289050 4.730900 15.735700 0.000005 -0.000001 72.849300 87.341700 -72.496800 8.984550 -0.406207 -0.000000 -2.681200 -1.599380 0.667464 16.377300 -0.000001 -0.000001 9.671610 -2.190450 1.091660 6.456720 -0.000001 -0.000000 8.366060 -1.582920 1.026850 12.994200 -0.242716 4.980390 -84.588500 -9.742860 -60.760800 5.348090 -0.000007 -0.000001 -49.431700 -56.713900 -81.842800 24.328600 0.000019 0.000005 1.203320 0.424122 -70.603200 22.291600 -0.000001 0.000005 17.809600 5.380110 -2.302300 12.994500 -0.242716 -4.980390 93.701700 -8.891150 -67.286900 -5.348130 -0.000001 -0.000004 -33.233500 -55.782900 -67.639100 -24.328900 0.000322 -0.000009 -6.463900 -2.643240 -67.848300 -22.291500 -0.000108 -0.000004 20.378400 5.503760 -6.685420 -2.192480 -6.469440 -0.000000 -173.964000 -13.448000 -2.080720 39.081100 -0.000007 -0.000012 -0.081130 0.205449 21.548600 40.985400 -0.000006 -0.000013 -0.282683 9.429610 -64.468900 11.754300 -0.000000 0.000003 -0.000096 -0.000991 -16.615600 -2.192510 6.469440 -0.000001 176.605000 25.681900 -179.974000 -39.081100 -0.002282 -0.040193 -0.048327 0.144100 19.719000 -40.985400 0.000008 0.000006 4.518720 18.226500 -65.255300 -11.754300 -0.000006 -0.000006 -0.002419 -0.033848 -17.949500
0.000000 0.000000 0.000000 0.000000 0.000000 -0.000000 -1.611920 92.438600 -1.276100 88.672000 -1.477370 4.800450 15.735700 0.000005 -0.000001 73.339100 87.222300 -72.913500 8.984550 -0.406207 -0.000000 -2.438100 -1.630140 0.816499 16.377300 -0.000001 -0.000001 9.194450 -1.832470 0.751882 6.456720 -0.000001 -0.000000 8.206060 -1.712740 0.914335 12.994200 -0.242716 4.980390 -85.550800 -8.198110 -61.381000 5.348090 -0.000007 -0.000001 -45.972900 -52.628800 -71.309500 24.328600 0.000019 0.000005 0.947725 0.159372 -80.465000 22.291600 -0.000001 0.000005 17.847200 5.376790 -2.197910 12.994500 -0.242716 -4.980390 92.788100 -7.071020 -68.417200 -5.348130 -0.000001 -0.000004 -29.906200 -50.959400 -59.471500 -24.328900 0.000322 -0.000009 -6.543040 -1.621590 -76.139000 -22.291500 -0.000108 -0.000004 20.710200 5.501640 -6.599650 -2.192480 -6.469440 -0.000000 -174.001000 -13.453700 -2.098590 39.081100 -0.000007 -0.000012 -0.084676 0.212215 21.752400 40.985400 -0.000006 -0.000013 -0.272531 9.235710 -64.579000 11.754300 -0.000000 0.000003 -0.000107 -0.001092 -16.619400 -2.192510 6.469440 -0.000001 176.486000 25.576300 179.981000 -39.081100 -0.002282 -0.040193 -0.058503 0.170857 19.892600 -40.985400 0.000008 0.000006 4.167930 18.367200 -65.183800 -11.754300 -0.000006 -0.000006 -0.002379 -0.033367 -17.930000
